<svg width="28" height="32" viewBox="0 0 28 32" fill="none" xmlns="http://www.w3.org/2000/svg">
<path d="M24.9635 3.06368C21.0998 -0.799994 14.808 -0.799994 10.9484 3.06368L0.243359 13.7606C0.173633 13.8303 0.136719 13.9246 0.136719 14.0231C0.136719 14.1215 0.173633 14.2158 0.243359 14.2856L1.75684 15.799C1.82602 15.8679 1.91966 15.9066 2.01729 15.9066C2.11491 15.9066 2.20855 15.8679 2.27773 15.799L12.9828 5.10215C14.3117 3.77325 16.0795 3.04317 17.958 3.04317C19.8365 3.04317 21.6043 3.77325 22.9291 5.10215C24.258 6.43106 24.9881 8.19883 24.9881 10.0732C24.9881 11.9518 24.258 13.7154 22.9291 15.0443L12.0189 25.9504L10.2512 27.7182C8.59824 29.3711 5.91172 29.3711 4.25879 27.7182C3.45898 26.9184 3.02012 25.8561 3.02012 24.724C3.02012 23.592 3.45898 22.5297 4.25879 21.7299L15.0828 10.91C15.3576 10.6393 15.7186 10.4875 16.1041 10.4875H16.1082C16.4937 10.4875 16.8506 10.6393 17.1213 10.91C17.3961 11.1848 17.5438 11.5457 17.5438 11.9313C17.5438 12.3127 17.392 12.6736 17.1213 12.9443L8.27422 21.7832C8.20449 21.8529 8.16758 21.9473 8.16758 22.0457C8.16758 22.1441 8.20449 22.2385 8.27422 22.3082L9.78769 23.8217C9.85688 23.8906 9.95052 23.9292 10.0481 23.9292C10.1458 23.9292 10.2394 23.8906 10.3086 23.8217L19.1516 14.9787C19.9678 14.1625 20.4148 13.0797 20.4148 11.9272C20.4148 10.7746 19.9637 9.6877 19.1516 8.87559C17.4658 7.18985 14.726 7.19395 13.0402 8.87559L11.9902 9.92969L2.22031 19.6955C1.55722 20.3547 1.03159 21.139 0.673922 22.0029C0.316252 22.8668 0.133655 23.7931 0.136719 24.7281C0.136719 26.6272 0.879101 28.4113 2.22031 29.7525C3.61074 31.1389 5.43184 31.832 7.25293 31.832C9.07402 31.832 10.8951 31.1389 12.2814 29.7525L24.9635 17.0787C26.8297 15.2084 27.8633 12.7188 27.8633 10.0732C27.8674 7.42364 26.8338 4.93399 24.9635 3.06368Z" fill="#333333"/>
</svg>
