<svg width="32" height="31" viewBox="0 0 32 31" fill="none" xmlns="http://www.w3.org/2000/svg">
<path d="M19.0479 0.964657C19.6687 0.964607 20.2787 1.12675 20.8174 1.43502C21.3562 1.74329 21.8051 2.18699 22.1196 2.72216L23.4084 4.91824H26.6875C28.052 4.91824 29.3606 5.46017 30.3256 6.42486C31.2906 7.38955 31.8329 8.698 31.8334 10.0625V25.1042C31.8334 25.7799 31.7003 26.4491 31.4417 27.0734C31.1831 27.6977 30.804 28.265 30.3262 28.7428C29.8483 29.2206 29.2811 29.5997 28.6567 29.8583C28.0324 30.1169 27.3633 30.25 26.6875 30.25H5.31252C3.94776 30.25 2.6389 29.7078 1.67387 28.7428C0.708836 27.7778 0.166687 26.4689 0.166687 25.1042V10.0625C0.166687 8.69773 0.708836 7.38887 1.67387 6.42384C2.6389 5.45881 3.94776 4.91666 5.31252 4.91666H8.60585L9.99127 2.66199C10.3098 2.143 10.7561 1.71434 11.2875 1.41691C11.8188 1.11949 12.4176 0.963235 13.0265 0.963074H19.0479V0.964657ZM19.0479 3.33966H13.0265C12.8532 3.3398 12.6821 3.37786 12.5251 3.45116C12.3681 3.52446 12.229 3.63124 12.1177 3.76399L12.0148 3.90649L10.2842 6.72482C10.1781 6.89792 10.0293 7.04091 9.85221 7.14015C9.67509 7.23938 9.47547 7.29155 9.27244 7.29166H5.3141C4.9501 7.29145 4.58962 7.36297 4.25327 7.50212C3.91691 7.64127 3.61127 7.84534 3.35381 8.10266C3.09634 8.35997 2.8921 8.6655 2.75276 9.00177C2.61341 9.33805 2.54169 9.69849 2.54169 10.0625V25.1042C2.54169 26.6337 3.78302 27.875 5.31252 27.875H26.6875C27.4224 27.875 28.1272 27.5831 28.6468 27.0634C29.1664 26.5438 29.4584 25.839 29.4584 25.1042V10.0625C29.4584 9.32762 29.1664 8.62285 28.6468 8.10322C28.1272 7.58358 27.4224 7.29166 26.6875 7.29166H22.7292C22.5222 7.29177 22.3188 7.23776 22.1391 7.135C21.9594 7.03224 21.8097 6.88429 21.7048 6.70582L20.0708 3.92391C19.966 3.74567 19.8166 3.59787 19.6372 3.49512C19.4578 3.39238 19.2547 3.33824 19.0479 3.33807V3.33966ZM16 9.66666C17.8897 9.66666 19.702 10.4173 21.0382 11.7535C22.3744 13.0897 23.125 14.902 23.125 16.7917C23.125 18.6813 22.3744 20.4936 21.0382 21.8298C19.702 23.166 17.8897 23.9167 16 23.9167C14.1104 23.9167 12.2981 23.166 10.9619 21.8298C9.62569 20.4936 8.87502 18.6813 8.87502 16.7917C8.87502 14.902 9.62569 13.0897 10.9619 11.7535C12.2981 10.4173 14.1104 9.66666 16 9.66666V9.66666ZM16 12.0417C15.3762 12.0417 14.7586 12.1645 14.1823 12.4032C13.606 12.6419 13.0823 12.9918 12.6413 13.4329C12.2002 13.874 11.8503 14.3976 11.6116 14.9739C11.3729 15.5502 11.25 16.1679 11.25 16.7917C11.25 17.4154 11.3729 18.0331 11.6116 18.6094C11.8503 19.1857 12.2002 19.7093 12.6413 20.1504C13.0823 20.5915 13.606 20.9414 14.1823 21.1801C14.7586 21.4188 15.3762 21.5417 16 21.5417C17.2598 21.5417 18.468 21.0412 19.3588 20.1504C20.2496 19.2596 20.75 18.0514 20.75 16.7917C20.75 15.5319 20.2496 14.3237 19.3588 13.4329C18.468 12.5421 17.2598 12.0417 16 12.0417V12.0417Z" fill="#333333"/>
</svg>
